<?xml version="1.0" encoding="utf-8"?>
<!-- Generator: Adobe Illustrator 27.1.0, SVG Export Plug-In . SVG Version: 6.00 Build 0)  -->
<svg version="1.1" id="Layer_2_00000026137375297002344570000018287480446752100529_"
	 xmlns="http://www.w3.org/2000/svg" xmlns:xlink="http://www.w3.org/1999/xlink" x="0px" y="0px" viewBox="0 0 294.7 171.5"
	 style="enable-background:new 0 0 294.7 171.5;" xml:space="preserve">
<style type="text/css">
	.st0{fill:#FFFFFF;}
</style>
<g>
	<polygon class="st0" points="198.9,0 170.4,28.5 170.4,28.5 170.4,0 141.9,0 113.4,28.5 113.4,28.5 113.4,0 84.9,0 56.4,28.5 
		56.4,85.5 84.9,85.5 113.4,57 113.4,57 113.4,57 113.4,57 113.4,85.5 141.9,85.5 170.4,57 170.4,57 198.9,57 227.5,28.5 227.5,0 	
		"/>
	<g>
		<path class="st0" d="M4.9,142.5l6.5,23.8c0.2,0.5,0.2,0.9,0.2,1.2s0,0.7,0.4,0.7c0.4,0,0.4-0.4,0.4-0.7s0.1-0.7,0.2-1.2l6-23.8H24
			l6,23.8c0.2,0.5,0.2,0.9,0.2,1.2s0,0.7,0.4,0.7c0.4,0,0.4-0.4,0.4-0.7s0.1-0.7,0.2-1.2l6.5-23.8h4.9L34.1,171h-6.7L22,149.5
			c-0.2-0.7-0.2-1.4-0.2-2.2c0-0.3,0-0.7-0.4-0.7s-0.4,0.4-0.4,0.7c0,0.8-0.1,1.5-0.2,2.2L15.4,171H8.7L0,142.5H4.9z"/>
		<path class="st0" d="M69.4,157.9H48c0.2,5,3.6,9.6,9.2,9.6c4.1,0,6.1-2.6,7.1-5.8H69c-1,4.7-4.9,9.8-11.9,9.8
			c-8.7,0-13.4-6.8-13.4-14.7c0-8.7,5.4-14.7,13.3-14.7c6.1,0,12.5,4.1,12.5,13.9C69.5,156.7,69.4,157.4,69.4,157.9z M48.2,154.3H65
			c-0.4-5.2-3.3-8.5-7.7-8.5C51.2,145.9,48.8,149.7,48.2,154.3z"/>
		<path class="st0" d="M80.2,139v3.6h8v3.8h-8V171h-4.5v-24.7h-4.5v-3.8h4.5v-3.2c0-6.6,2.3-8.3,8.2-8.3h4.2v3.8h-4.2
			C80.8,134.8,80.2,135.8,80.2,139z"/>
		<path class="st0" d="M100.6,154.4c5.2-0.4,10.5,0,10.5-3.2c-0.1-2.2-1.2-5.3-7.7-5.3c-5,0-7.2,2.6-7.6,5.1h-4.3
			c1-6.3,6.2-8.9,12.4-8.9c6.4,0,11.7,2.2,11.7,12.7V171h-4.5v-3.2c0-1.1,0.2-1.9,0.6-3.1c0.2-0.4,0.3-0.9-0.1-1.1
			c-0.3-0.1-0.5,0.3-0.6,0.5c-1.5,4.5-5.8,7.3-11,7.3c-5.1,0-9.4-3.5-9.4-8.4C90.6,156.8,95.6,154.8,100.6,154.4z M100.8,158
			c-3.5,0.6-5.7,1.8-5.7,4.8c0,2.7,2.1,5.3,6.7,4.9c5.3-0.5,9.2-4.7,9.3-12.6C109.4,157.1,105.1,157.3,100.8,158z"/>
		<path class="st0" d="M126.7,144.8c0,1-0.1,1.9-0.5,3.1c-0.2,0.5-0.5,1,0,1.2c0.3,0.1,0.6-0.4,0.6-0.6c1.7-3.7,5-6.3,9.6-6.3
			c7.4,0,12.6,6.2,12.6,14.7c0,8.5-5.2,14.7-12.6,14.7c-4.5,0-7.8-2.6-9.6-6.5c-0.1-0.2-0.3-0.6-0.7-0.4c-0.3,0.2-0.2,0.6,0,1.1
			c0.4,1.2,0.6,2,0.6,3v2.4h-4.5V131h4.5V144.8z M144.5,156.8c0-5.8-3-10.7-8.8-10.7c-5.3,0-9,4.9-9,10.7s3.7,10.7,9,10.7
			C141.5,167.5,144.5,162.6,144.5,156.8z"/>
		<path class="st0" d="M158.4,148.7c1.9-4.6,3.4-6.6,10.6-6.6v4.6c-8.3-0.6-10.7,2.4-10.7,9.9V171h-4.5v-28.5h4.5v2.2
			c0,1.1-0.1,2-0.6,3.3c-0.2,0.4-0.3,0.9,0.1,1C158.2,149.2,158.3,148.9,158.4,148.7z"/>
		<path class="st0" d="M173.2,131h4.9v5.8h-4.9V131z M173.4,142.5h4.5V171h-4.5V142.5z"/>
		<path class="st0" d="M195.9,142.1c7.5,0,11.9,5.2,12.3,10.7h-4.3c-0.6-3.8-3.2-6.7-7.8-6.7c-6.3,0-9.2,4.9-9.2,10.7
			s2.8,10.7,9.2,10.7c4.6,0,7.3-2.8,7.8-6.7h4.3c-0.4,5.5-4.8,10.7-12.3,10.7c-8.4,0-13.5-6.6-13.5-14.7
			C182.4,148.7,187.3,142.1,195.9,142.1z"/>
		<path class="st0" d="M221.8,154.4c5.2-0.4,10.5,0,10.5-3.2c-0.1-2.2-1.2-5.3-7.7-5.3c-5,0-7.2,2.6-7.6,5.1h-4.3
			c1-6.3,6.2-8.9,12.4-8.9c6.4,0,11.7,2.2,11.7,12.7V171h-4.5v-3.2c0-1.1,0.2-1.9,0.6-3.1c0.2-0.4,0.3-0.9-0.1-1.1
			c-0.3-0.1-0.5,0.3-0.6,0.5c-1.5,4.5-5.8,7.3-11,7.3c-5.1,0-9.4-3.5-9.4-8.4C211.7,156.8,216.8,154.8,221.8,154.4z M221.9,158
			c-3.5,0.6-5.7,1.8-5.7,4.8c0,2.7,2.1,5.3,6.7,4.9c5.3-0.5,9.2-4.7,9.3-12.6C230.6,157.1,226.2,157.3,221.9,158z"/>
		<path class="st0" d="M249.1,146.3V163c0,3.2,0.7,4.2,3.8,4.2h4.2v3.8h-4.2c-5.9,0-8.2-1.7-8.2-8.3v-16.4h-5.3v-3.8h5.3v-8h4.5v8h8
			v3.8H249.1z"/>
		<path class="st0" d="M285.6,157.9h-21.4c0.2,5,3.6,9.6,9.2,9.6c4.1,0,6.1-2.6,7.1-5.8h4.7c-1,4.7-4.9,9.8-11.9,9.8
			c-8.7,0-13.4-6.8-13.4-14.7c0-8.7,5.4-14.7,13.3-14.7c6.1,0,12.5,4.1,12.5,13.9C285.7,156.7,285.6,157.4,285.6,157.9z
			 M264.4,154.3h16.8c-0.4-5.2-3.3-8.5-7.7-8.5C267.4,145.9,265,149.7,264.4,154.3z"/>
		<g>
			<path class="st0" d="M289.1,134.5v0.6h-1.4v4.2H287v-4.2h-1.4v-0.6H289.1z"/>
			<path class="st0" d="M294.7,134.5v4.8H294v-3.7h0l-1.4,3.1h-0.7l-1.4-3.1h-0.1v3.7h-0.6v-4.8h0.8l1.6,3.6h0l1.6-3.6H294.7z"/>
		</g>
	</g>
</g>
</svg>
